<svg width="121" height="33" viewBox="0 0 121 33" fill="none" xmlns="http://www.w3.org/2000/svg">
<path d="M18.8904 32.5161C16.0154 27.3286 11.0623 19.7348 4.03101 9.7348V31.9536L0.0466309 32.0004V1.1098H3.56226L17.9529 22.9067V1.2973H21.8904V31.4848L18.8904 32.5161ZM45.0185 32.7504C40.5498 32.7504 37.0654 31.1254 34.5654 27.8754C32.3154 24.9692 31.206 21.1879 31.2373 16.5317C31.2373 12.1879 32.4873 8.56293 34.9873 5.65668C37.6123 2.56293 41.0654 1.00043 45.3466 0.969177C49.5966 0.969177 53.0029 2.53168 55.5654 5.65668C57.9404 8.56293 59.1279 12.1879 59.1279 16.5317C59.1279 21.1254 57.9404 24.9223 55.5654 27.9223C53.0029 31.1411 49.4873 32.7504 45.0185 32.7504ZM45.2529 4.53168C42.1279 4.53168 39.6123 5.8598 37.706 8.51605C36.0498 10.8911 35.2216 13.7036 35.2216 16.9536C35.2216 20.0786 36.0498 22.8286 37.706 25.2036C39.5498 27.7973 41.9873 29.0942 45.0185 29.0942C48.0498 29.0942 50.5341 27.8129 52.4716 25.2504C54.2529 22.8754 55.1591 20.1411 55.1904 17.0473C55.1904 13.8286 54.3466 11.0004 52.6591 8.56293C50.8154 5.87543 48.3466 4.53168 45.2529 4.53168ZM85.256 32.4692C83.631 30.8442 81.7404 28.5004 79.5841 25.4379C78.1154 23.3442 76.5216 20.8754 74.8029 18.0317L72.6935 18.1254V32.0004H68.4279V1.25043L78.0841 1.1098C83.6779 1.1723 86.4591 4.00043 86.4279 9.59418C86.3966 11.8129 85.7248 13.6254 84.4123 15.0317C83.0998 16.4379 81.3185 17.3598 79.0685 17.7973C80.131 19.2661 81.8498 21.5629 84.2248 24.6879C85.506 26.3442 87.631 28.6254 90.5998 31.5317L85.256 32.4692ZM76.8654 4.01605L72.6935 4.1098V14.8911H75.7873C78.0998 14.8911 79.7873 14.4692 80.8498 13.6254C81.9435 12.7817 82.4904 11.2661 82.4904 9.07855C82.4904 5.6098 80.6154 3.9223 76.8654 4.01605ZM117.478 32.5161C114.603 27.3286 109.65 19.7348 102.618 9.7348V31.9536L98.6341 32.0004V1.1098H102.15L116.54 22.9067V1.2973H120.478V31.4848L117.478 32.5161Z" fill="black"/>
</svg>
