<svg width="28" height="27" viewBox="0 0 28 27" fill="none" xmlns="http://www.w3.org/2000/svg">
<g clip-path="url(#clip0)">
<path d="M24.9232 16.1737L24.9081 16.16C24.669 15.9468 23.9367 15.2583 23.6898 14.9574C23.3999 14.5819 23.4667 14.3359 23.684 13.9673C23.9585 13.5014 24.5086 12.7869 25.0907 12.0303C26.9552 9.60757 28.159 7.93039 27.9112 6.73907L27.7777 6.10275L20.8919 6.10564C20.8678 6.16838 20.5085 7.69345 18.9922 10.2903C17.8927 12.1733 17.1715 12.7648 16.9175 12.8693L16.8782 12.8577C16.7955 12.759 16.6511 12.4928 16.5917 11.8065C16.5298 11.0876 16.5847 10.2173 16.6378 9.37558C16.7 8.38859 16.7536 7.53617 16.6252 6.92627L16.4161 5.93267C16.1634 5.89367 15.2382 5.54878 12.6604 5.52256C10.4287 5.50048 9.77306 5.81193 9.45113 6.08644L8.38622 6.99438L9.73226 7.43194C10.2445 7.5985 10.4146 7.79066 10.5541 8.74318C10.6451 9.36402 10.6927 10.4074 10.5944 11.3388C10.4532 12.6744 10.1146 12.9229 10.0971 12.9361C10.0388 12.9169 9.54427 12.7079 8.68571 10.9541C8.09013 9.73781 7.56804 8.29901 7.18651 7.24845C6.74986 6.04537 6.82847 6.30151 6.60695 5.73309L-0.0546875 5.73288L0.376405 6.81027C2.17362 11.3062 3.82258 14.8172 6.02931 17.339C8.46739 20.1251 11.4974 21.5839 15.5789 21.5839H16.3992V20.7914C16.3992 20.0504 16.4627 19.5169 16.5988 19.1123C16.6819 18.8659 16.7923 18.6622 16.9083 18.4486C17.0805 18.134 17.2488 17.9992 17.3407 17.9792C17.424 17.9609 17.5705 18.0199 17.7329 18.1369C18.199 18.4727 18.569 18.914 18.9608 19.3813C19.526 20.0556 20.1105 20.7526 21.0378 21.2089C21.5446 21.4583 22.4734 21.5842 22.9846 21.5842C23.1198 21.5842 27.9394 21.5839 27.9454 21.5839L27.9101 20.7588C27.8576 19.5249 26.8525 17.9821 24.9232 16.1737ZM23.0164 19.9988H23.0032C22.6507 20.0044 21.978 19.8927 21.7823 19.7966C21.1658 19.4931 20.7349 18.979 20.2357 18.3838C19.7976 17.861 19.3445 17.3204 18.7136 16.8661C18.2035 16.4985 17.7401 16.391 17.3723 16.391C17.2253 16.391 17.0933 16.4081 16.9801 16.4329C16.553 16.5258 15.9423 16.8226 15.4567 17.7099C15.3198 17.9623 15.1645 18.2482 15.0387 18.6222C14.9069 19.0135 14.8248 19.4484 14.7857 19.9774C11.71 19.8085 9.30992 18.6329 7.28221 16.3157C5.39698 14.1611 3.91379 11.1475 2.34302 7.31739C2.45667 7.31739 5.30448 7.3178 5.47261 7.3178C5.52409 7.45753 5.57963 7.61068 5.63859 7.77291C6.04982 8.90623 6.61314 10.4581 7.27687 11.7815C8.22728 13.6767 9.09523 14.5219 10.0909 14.5219C10.588 14.5219 11.0339 14.3184 11.3801 13.933C11.8738 13.3838 12.1605 12.4773 12.2566 11.1615C12.3325 10.124 12.262 9.09055 12.1787 8.5211C12.1099 8.05258 12.0118 7.56073 11.7726 7.12008C12.7922 7.0757 14.1575 7.14587 15.0224 7.26579C15.101 7.67941 15.0498 8.49241 15.0002 9.27899C14.8804 11.1791 14.7567 13.1398 15.7977 14.0573C15.9807 14.2187 16.1749 14.3052 16.1805 14.3087L16.7103 14.4657C16.9147 14.4048 18.0988 14.9852 20.341 11.2047C21.0594 9.99332 21.7283 8.59746 22.0884 7.68581C22.9237 7.68416 25.7694 7.68725 26.1037 7.68767C25.6301 8.69468 24.5077 10.131 23.7742 11.0843C23.1346 11.9153 22.5823 12.6329 22.2583 13.1828C21.6563 14.2042 21.7575 15.1146 22.3845 15.9177L22.3944 15.9301C22.7443 16.3605 23.6084 17.1571 23.7876 17.3177C25.086 18.5357 25.7117 19.4106 26.0095 19.9986H23.0164V19.9988Z" fill="black"/>
</g>
<defs>
<clipPath id="clip0">
<rect width="28" height="27" fill="white"/>
</clipPath>
</defs>
</svg>
